<svg width="80" height="80" viewBox="0 0 80 80" xmlns="http://www.w3.org/2000/svg">
<defs><linearGradient id="lm" x1="0" y1="0" x2="1" y2="1"><stop offset="0" stop-color="#9B7BFF"/><stop offset="1" stop-color="#5733C2"/></linearGradient></defs>
<rect width="80" height="80" rx="14" fill="url(#lm)"/>
<path d="M38 16c1 9 4 12 13 13-9 1-12 4-13 13-1-9-4-12-13-13 9-1 12-4 13-13z" fill="#FFFFFF"/>
<path d="M56 40c.6 5 2 6.5 7 7-5 .5-6.4 2-7 7-.6-5-2-6.5-7-7 5-.5 6.4-2 7-7z" fill="#FFFFFF" opacity="0.9"/></svg>
