<svg width="80" height="80" viewBox="0 0 80 80" xmlns="http://www.w3.org/2000/svg">
  <defs><linearGradient id="mm" x1="0" y1="0" x2="1" y2="1"><stop offset="0" stop-color="#8B6CFF"/><stop offset="1" stop-color="#5733C2"/></linearGradient></defs>
  <rect width="80" height="80" rx="8" fill="url(#mm)"/>
  <g fill="#FFFFFF">
    <rect x="24" y="24" width="32" height="32" rx="5"/>
    <g fill="#5733C2"><rect x="30" y="31" width="20" height="3.4" rx="1.7"/><rect x="30" y="38" width="20" height="3.4" rx="1.7"/><rect x="30" y="45" width="14" height="3.4" rx="1.7"/></g>
    <g><rect x="32" y="16" width="3.4" height="8" rx="1.7"/><rect x="44" y="16" width="3.4" height="8" rx="1.7"/><rect x="32" y="56" width="3.4" height="8" rx="1.7"/><rect x="44" y="56" width="3.4" height="8" rx="1.7"/><rect x="16" y="32" width="8" height="3.4" rx="1.7"/><rect x="16" y="44" width="8" height="3.4" rx="1.7"/><rect x="56" y="32" width="8" height="3.4" rx="1.7"/><rect x="56" y="44" width="8" height="3.4" rx="1.7"/></g>
  </g>
</svg>
